# xmcd
#
# Track frame offsets:
#	150
#	15635
#	27860
#	42842
#	56467
#	70925
#	85870
#	97352
#	114697
#	129332
#	142225
#	156827
#	168902
#	181655
#
# Disc length: 2600
#
# Revision: 4
# Processed by: cddbd v1.5.1PL0 Copyright (c) Steve Scherf et al.
# Submitted via: audiograbber 1.83.01
# Normalized: r3:DSETVAR1
#
DISCID=ba0a260e
DTITLE=Various Artist - Mr Music Country 1995-09
DYEAR=1995
DGENRE=Country
TTITLE0=John Anderson - They spent forever
TTITLE1=Michael Copeland - Friends behind bars
TTITLE2=Jesse Chavez - When it finally happens
TTITLE3=Chris Shook - Hello earth
TTITLE4=Gary Hall - What goes around comes around
TTITLE5=Mindy McCready - Breakin' it
TTITLE6=Kenny Chesney - Turn for the worse
TTITLE7=Keith Gattis - Little drops of my heart
TTITLE8=Dale Cole - Neon blindness blues
TTITLE9=Junior Brown - Still life with rose
TTITLE10=Bill Gerick - West Texas Sam
TTITLE11=Tania Kernaghan - I'll be gone
TTITLE12=Lee Kernaghan - You'rethe reason I never saw Hank Jr Play
TTITLE13=Marsha Thornton - Tennessee Waltz
EXTD=
EXTT0=
EXTT1=
EXTT2=
EXTT3=
EXTT4=
EXTT5=
EXTT6=
EXTT7=
EXTT8=
EXTT9=
EXTT10=
EXTT11=
EXTT12=
EXTT13=
PLAYORDER=
